<svg width="239" height="180" viewBox="0 0 239 180" fill="none" xmlns="http://www.w3.org/2000/svg">
<path d="M38.3291 112.58L37.9537 113.51L38.8663 113.093L67.0663 100.206L67.4958 100.01L67.2315 99.6184L52.8315 78.2984L52.4105 77.6751L52.129 78.3726L38.3291 112.58ZM30.2338 132.957L30.0885 133.024L30.0289 133.172L23.3885 149.686L0.754512 160.029L37.91 69.5294L67.665 55.9328L106.994 111.481L82.6424 122.607L75.8318 112.489L75.6424 112.207L75.3337 112.348L30.2338 132.957ZM183.5 26.9512V26.9433V26.8433C183.5 25.7315 183.301 24.7801 182.875 24.0121C182.445 23.2373 181.799 22.6736 180.953 22.3245C180.091 21.9691 179.032 21.9219 177.806 22.1368C176.577 22.352 175.152 22.8352 173.534 23.5745L138.234 39.7055L138 39.8123V40.0693V54.6693V55.2919L138.566 55.0331L173.86 38.9051C176.66 37.7435 179.132 35.912 181.059 33.5715L181.059 33.5709C182.593 31.7007 183.452 29.3691 183.5 26.9512ZM193.355 34.4262L193.678 35.1346C197.744 34.3227 201.011 34.7803 203.53 36.4384C206.008 38.0696 207.3 41.0113 207.3 45.4043V56.3043C207.3 58.4173 207.417 60.196 207.655 61.6351C207.882 63.0069 208.224 64.0986 208.7 64.8795V65.0073L185.483 75.6165C185.278 75.3757 185.098 75.0122 184.962 74.4929C184.791 73.8384 184.7 72.9758 184.7 71.8943V63.2943C184.7 58.6709 183.532 55.63 180.958 54.5266C179.684 53.9808 178.007 53.9436 175.972 54.3479C173.93 54.7536 171.482 55.6129 168.634 56.9145L138.234 70.8024L138 70.9092V71.1663V97.3093L115.5 107.592V34.0713L175.266 6.7601C186.028 1.84237 194.01 -0.191871 199.269 0.547396C201.879 0.914239 203.792 1.95997 205.061 3.65478C206.337 5.35887 207 7.7699 207 10.9363V12.1344C206.989 14.6137 206.523 17.07 205.627 19.3817L205.625 19.3862C204.747 21.7352 203.502 23.9302 201.937 25.8896L201.936 25.8911C200.582 27.6033 199.124 29.2307 197.57 30.7642C196.234 32.0619 194.827 33.2845 193.355 34.4262Z" stroke="url(#paint0_linear_2201_2)" stroke-width="0.8"/>
<path fill-rule="evenodd" clip-rule="evenodd" d="M55.2439 158.512L83.3909 165.395L83.3359 145.628L55.2439 158.512ZM108.189 112.663L106.942 166.015L76.8579 179.815L1.00293 161.823L24.6119 150.995L38.3049 154.363L83.2319 133.758L83.1849 124.131L108.189 112.663ZM203.711 109.643C206.898 108.181 208.912 106.785 209.751 105.454C209.957 105.199 210.111 104.905 210.203 104.59C210.294 104.274 210.323 103.944 210.286 103.618C210.25 103.291 210.149 102.976 209.99 102.689C209.83 102.402 209.616 102.149 209.358 101.945L209.307 101.898C208.596 101.338 207.782 100.923 206.911 100.677C206.04 100.431 205.129 100.36 204.23 100.466C201.424 100.703 198.69 101.476 196.175 102.742L161.011 118.87L168.547 125.77L203.711 109.643ZM182.778 97.1813C188.422 94.5933 191.873 92.2776 193.132 90.2343C194.391 88.191 193.832 86.0823 191.457 83.9083L187.018 79.8433C185.885 78.8033 185.441 77.895 185.688 77.1183L209.297 66.2903L209.555 66.5273C209.587 67.8353 210.687 69.4823 212.855 71.4683L218.481 76.6203C220.786 78.7316 221.384 81.082 220.275 83.6713C219.166 86.2606 216.828 88.752 213.261 91.1453C214.961 90.6953 216.673 90.3236 218.398 90.0303C220.345 89.7119 222.308 89.4986 224.278 89.3913C226.385 89.2487 228.501 89.4514 230.542 89.9913C232.352 90.4346 234.027 91.3099 235.424 92.5423L236.043 93.1093C242.683 99.1906 235.278 107.151 213.829 116.989L154.06 144.401L115.66 109.234L138.87 98.5893L152.496 111.067L182.778 97.1813Z" fill="url(#paint1_linear_2201_2)"/>
<defs>
<linearGradient id="paint0_linear_2201_2" x1="202.5" y1="17.5" x2="19" y2="102" gradientUnits="userSpaceOnUse">
<stop stop-color="#7EF7FF"/>
<stop offset="0.1875" stop-color="#8EFFB5"/>
<stop offset="0.364583" stop-color="#F6FF89"/>
<stop offset="0.567708" stop-color="#FF8372"/>
<stop offset="0.770833" stop-color="#DC79FF"/>
<stop offset="0.989583" stop-color="#6B68FF"/>
</linearGradient>
<linearGradient id="paint1_linear_2201_2" x1="120" y1="108" x2="169.5" y2="183.5" gradientUnits="userSpaceOnUse">
<stop stop-color="#2A2A32"/>
<stop offset="1" stop-color="#2A2A32" stop-opacity="0"/>
</linearGradient>
</defs>
</svg>
